<?xml version="1.0" standalone="no"?>
<!DOCTYPE svg PUBLIC "-//W3C//DTD SVG 20010904//EN"
 "http://www.w3.org/TR/2001/REC-SVG-20010904/DTD/svg10.dtd">
<svg version="1.0" xmlns="http://www.w3.org/2000/svg"
 width="500.000000pt" height="500.000000pt" viewBox="0 0 500.000000 500.000000"
 preserveAspectRatio="xMidYMid meet">
<metadata>
Created by potrace 1.14, written by Peter Selinger 2001-2017
</metadata>
<g transform="translate(0.000000,500.000000) scale(0.100000,-0.100000)"
fill="#000000" stroke="none">
<path d="M418 2925 c-5 -5 -8 -131 -8 -282 l0 -273 35 0 35 0 0 129 0 129 88
4 c150 7 218 54 216 148 -1 100 -63 138 -241 147 -65 3 -121 2 -125 -2z m243
-38 c40 -27 59 -60 59 -103 0 -91 -50 -134 -166 -142 l-74 -5 0 137 0 136 74
0 c59 0 79 -4 107 -23z"/>
<path d="M870 2650 l0 -280 30 0 30 0 0 280 0 280 -30 0 -30 0 0 -280z"/>
<path d="M1012 2648 l2 -283 6 263 5 264 174 -257 c96 -141 179 -258 183 -261
4 -3 7 122 6 278 l-2 283 -6 -224 -5 -224 -124 184 c-169 250 -176 259 -212
259 l-29 0 2 -282z"/>
<path d="M1605 2743 c-37 -103 -83 -231 -102 -283 -19 -52 -30 -90 -25 -85 5
6 24 50 42 98 l33 88 100 -3 99 -3 17 -45 c10 -25 25 -66 35 -92 16 -42 21
-48 47 -48 16 0 29 2 29 5 0 12 -193 541 -200 548 -4 5 -38 -76 -75 -180z
m105 -65 l39 -108 -95 0 c-52 0 -94 4 -94 9 0 6 58 168 86 241 7 17 7 17 64
-142z"/>
<path d="M1967 2924 c-4 -4 -7 -130 -7 -281 l0 -273 183 2 182 2 -147 3 -148
4 -2 272 -3 272 -25 3 c-14 2 -29 0 -33 -4z"/>
<path d="M2750 2912 c-81 -45 -96 -120 -42 -215 l31 -55 -39 -27 c-52 -36 -70
-66 -70 -117 1 -67 43 -108 134 -128 59 -13 142 1 179 30 24 19 24 19 60 -6
35 -23 38 -24 62 -8 l25 16 -41 30 c-30 22 -39 34 -33 46 22 54 33 90 34 115
0 23 -4 27 -29 27 -27 0 -29 -3 -34 -52 -4 -28 -11 -56 -17 -62 -16 -16 -183
162 -219 236 -39 78 -40 111 -2 149 53 53 134 32 147 -37 10 -55 -11 -108 -58
-148 -55 -47 -36 -46 26 2 59 44 84 76 92 118 5 26 0 38 -24 64 -25 29 -36 34
-88 37 -45 3 -67 0 -94 -15z m94 -379 l98 -98 -26 -22 c-50 -42 -112 -47 -176
-13 -33 18 -63 94 -55 138 7 37 40 92 54 92 5 0 52 -44 105 -97z"/>
<path d="M3568 2917 c-66 -19 -112 -58 -143 -122 -25 -51 -27 -63 -23 -148 5
-101 19 -139 72 -195 63 -67 159 -95 246 -72 50 13 140 96 140 127 -1 16 -2
15 -12 -2 -35 -64 -91 -98 -163 -98 -84 0 -153 52 -197 148 -30 65 -32 191 -4
245 40 77 90 111 167 112 75 0 114 -34 143 -124 8 -25 66 -25 66 0 0 31 -48
89 -92 111 -56 27 -141 34 -200 18z"/>
<path d="M4136 2918 c-67 -9 -124 -51 -155 -113 -22 -42 -26 -63 -26 -140 0
-75 4 -98 24 -139 84 -170 267 -206 384 -76 50 56 70 114 70 200 -2 181 -127
293 -297 268z m113 -23 c75 -38 116 -134 116 -270 0 -76 -4 -98 -25 -139 -33
-65 -66 -88 -135 -94 l-56 -5 -48 50 c-129 134 -106 411 39 466 29 11 81 7
109 -8z"/>
<path d="M4524 2426 c-11 -28 1 -51 25 -51 32 0 49 28 32 49 -17 20 -50 21
-57 2z"/>
<path d="M782 2209 c-37 -14 -27 -61 16 -75 48 -15 60 -30 39 -51 -13 -14 -21
-15 -42 -5 -36 17 -54 14 -31 -3 26 -20 71 -19 90 1 27 27 13 53 -36 70 -22 7
-33 17 -33 30 0 16 6 19 39 17 23 -2 36 1 30 6 -16 15 -48 20 -72 10z"/>
<path d="M1153 2210 c-34 -14 -56 -54 -48 -90 13 -60 86 -80 130 -35 31 30 32
66 3 99 -27 29 -55 38 -85 26z m67 -30 c35 -35 21 -90 -26 -104 -29 -9 -74 28
-74 60 0 29 33 64 60 64 11 0 29 -9 40 -20z"/>
<path d="M3592 2209 c-37 -14 -27 -61 16 -75 48 -15 60 -30 39 -51 -13 -14
-21 -15 -42 -5 -36 17 -54 14 -31 -3 26 -20 71 -19 90 1 27 27 13 53 -36 70
-22 7 -33 17 -33 30 0 16 6 19 39 17 23 -2 36 1 30 6 -16 15 -48 20 -72 10z"/>
<path d="M3873 2210 c-45 -18 -58 -95 -23 -130 40 -40 120 -20 120 30 0 28 -2
30 -37 29 -31 -2 -33 -3 -10 -6 38 -6 39 -48 1 -57 -40 -10 -74 17 -74 58 0
47 29 70 77 61 26 -4 35 -3 28 4 -16 15 -58 21 -82 11z"/>
<path d="M400 2135 l0 -76 51 3 c57 3 78 22 64 54 -5 11 -9 35 -9 54 l-1 35
-52 3 -53 3 0 -76z m90 50 c17 -21 3 -35 -36 -35 -30 0 -34 3 -34 25 0 21 5
25 29 25 16 0 34 -7 41 -15z m7 -66 c21 -21 3 -39 -38 -39 -35 0 -39 3 -39 25
0 22 4 25 33 25 18 0 38 -5 44 -11z"/>
<path d="M590 2135 l0 -75 55 0 c30 0 55 5 55 10 0 6 -22 10 -50 10 -47 0 -50
2 -50 25 0 23 4 25 46 25 27 0 43 4 39 10 -3 6 -24 10 -46 10 -36 0 -40 2 -37
23 2 18 11 23 53 28 l50 6 -57 1 -58 2 0 -75z"/>
<path d="M930 2135 c0 -43 4 -75 10 -75 6 0 10 11 10 24 0 20 6 24 40 30 36 6
60 27 60 55 0 23 -33 41 -76 41 l-44 0 0 -75z m91 49 c19 -23 -1 -48 -40 -52
-30 -3 -31 -2 -31 32 0 33 2 36 29 36 16 0 34 -7 42 -16z"/>
<path d="M1320 2135 c0 -43 4 -75 10 -75 6 0 10 8 10 18 0 10 7 27 15 38 15
18 16 18 49 -21 44 -50 57 -41 16 10 -16 21 -30 41 -30 45 0 3 11 17 25 30 14
13 23 26 20 29 -3 2 -26 -15 -50 -39 l-45 -44 0 42 c0 23 -4 42 -10 42 -6 0
-10 -32 -10 -75z"/>
<path d="M1510 2135 l0 -75 55 0 c30 0 55 5 55 10 0 6 -20 10 -45 10 -41 0
-45 2 -45 25 0 23 4 25 40 25 22 0 40 5 40 10 0 6 -18 10 -40 10 -36 0 -40 3
-40 24 0 22 5 25 48 29 46 3 46 3 -10 5 l-58 2 0 -75z"/>
<path d="M1852 2158 c-2 -65 -22 -94 -52 -78 -27 14 -34 12 -20 -5 16 -19 54
-19 69 -1 7 9 11 39 8 78 l-3 63 -2 -57z"/>
<path d="M1930 2135 l0 -75 61 0 c37 0 58 4 54 10 -3 6 -26 10 -51 10 -40 0
-44 2 -44 25 0 23 4 25 46 25 27 0 43 4 39 10 -3 6 -24 10 -46 10 -35 0 -39 3
-39 24 0 23 4 25 53 29 l52 3 -62 2 -63 2 0 -75z"/>
<path d="M2103 2198 c2 -7 14 -41 27 -75 12 -35 26 -63 31 -63 4 0 16 25 25
55 10 30 21 55 24 55 3 0 14 -25 24 -55 9 -30 21 -55 26 -55 4 0 20 34 33 75
14 41 22 75 17 75 -5 0 -17 -25 -26 -55 -10 -30 -21 -55 -24 -55 -3 0 -14 25
-24 55 -9 30 -21 55 -26 55 -5 0 -17 -25 -26 -55 -10 -30 -21 -55 -24 -55 -3
0 -14 25 -24 55 -9 30 -22 55 -28 55 -5 0 -8 -6 -5 -12z"/>
<path d="M2380 2135 l0 -75 55 0 c30 0 55 5 55 10 0 6 -20 10 -45 10 -41 0
-45 2 -45 25 0 23 4 25 40 25 22 0 40 5 40 10 0 6 -18 10 -40 10 -36 0 -40 3
-40 24 0 22 5 25 48 29 46 3 46 3 -10 5 l-58 2 0 -75z"/>
<path d="M2560 2135 l0 -75 50 0 c28 0 50 5 50 10 0 6 -18 10 -40 10 l-40 0 0
65 c0 37 -4 65 -10 65 -6 0 -10 -32 -10 -75z"/>
<path d="M2720 2135 c0 -43 4 -75 10 -75 6 0 10 14 10 30 0 25 4 30 23 30 14
0 32 -12 45 -30 13 -16 27 -30 33 -30 5 0 0 13 -12 29 l-21 29 21 21 c21 21
19 48 -3 63 -6 4 -32 8 -58 8 l-48 0 0 -75z m100 50 c21 -26 4 -45 -40 -45
-38 0 -40 2 -40 30 0 27 3 30 34 30 18 0 39 -7 46 -15z"/>
<path d="M2930 2166 c17 -26 30 -57 30 -75 0 -17 5 -31 10 -31 6 0 10 15 10
33 0 22 11 49 30 75 37 51 22 56 -16 7 l-27 -36 -24 36 c-13 19 -28 35 -34 35
-5 0 4 -20 21 -44z"/>
<path d="M3190 2135 l0 -75 45 0 c81 0 120 65 74 124 -17 22 -28 26 -70 26
l-49 0 0 -75z m100 45 c42 -42 16 -100 -46 -100 l-34 0 0 60 0 60 30 0 c17 0
39 -9 50 -20z"/>
<path d="M3390 2135 l0 -75 61 0 c37 0 58 4 54 10 -3 6 -26 10 -51 10 -40 0
-44 2 -44 25 0 23 4 25 46 25 27 0 43 4 39 10 -3 6 -24 10 -46 10 -35 0 -39 3
-39 24 0 23 4 25 53 29 l52 3 -62 2 -63 2 0 -75z"/>
<path d="M3740 2135 c0 -43 4 -75 10 -75 6 0 10 32 10 75 0 43 -4 75 -10 75
-6 0 -10 -32 -10 -75z"/>
<path d="M4030 2135 c0 -43 4 -75 10 -75 6 0 10 28 10 63 l1 62 27 -35 c15
-19 39 -48 54 -65 l27 -30 -1 80 -1 80 -6 -60 -6 -60 -45 57 c-25 31 -51 57
-57 57 -9 1 -13 -20 -13 -74z"/>
<path d="M4240 2135 l0 -75 55 0 c30 0 55 5 55 10 0 6 -22 10 -50 10 -47 0
-50 2 -50 25 0 23 4 25 46 25 27 0 43 4 39 10 -3 6 -24 10 -46 10 -36 0 -40 2
-37 23 2 18 11 23 53 28 l50 6 -57 1 -58 2 0 -75z"/>
<path d="M4410 2135 c0 -43 4 -75 10 -75 6 0 10 14 10 30 0 25 4 30 23 30 14
0 32 -12 45 -30 13 -16 27 -30 33 -30 5 0 0 13 -12 29 l-21 29 21 21 c21 21
19 48 -3 63 -6 4 -32 8 -58 8 l-48 0 0 -75z m100 50 c21 -26 4 -45 -40 -45
-38 0 -40 2 -40 30 0 27 3 30 34 30 18 0 39 -7 46 -15z"/>
</g>
</svg>
