<svg width="1728" height="1140" viewBox="0 0 1728 1140" fill="none" xmlns="http://www.w3.org/2000/svg">
<rect width="1728" height="1140" fill="white"/>
<path d="M143.924 340.242C143.572 341.824 143.191 342.762 142.781 343.055C142.43 343.289 141.609 343.23 140.32 342.879C131.941 341.355 119.695 341.18 103.582 342.352C100.535 342.586 98.8652 342 98.5723 340.594C98.2793 338.953 99.2461 337.693 101.473 336.814C107.801 334.236 110.965 331.834 110.965 329.607C110.965 328.729 110.613 327.469 109.91 325.828C105.574 315.457 101.971 307.107 99.0996 300.779C94.9395 301.014 87.6152 301.131 77.127 301.131C68.4551 301.131 61.0723 300.896 54.9785 300.428C52.9277 305.467 50.0566 312.498 46.3652 321.521C45.5449 323.572 45.1348 325.418 45.1348 327.059C45.1348 330.34 46.9219 332.742 50.4961 334.266C56.0039 336.609 58.6992 338.396 58.582 339.627C58.4648 341.619 56.6191 342.41 53.0449 342C42.0293 340.828 31.834 341.18 22.459 343.055C19.998 343.582 18.6211 342.703 18.3281 340.418C18.0938 338.895 19.998 337.254 24.041 335.496C28.377 333.68 32.0391 329.49 35.0273 322.928C46.4531 298.143 53.8359 281.854 57.1758 274.061C65.2617 255.369 70.9746 240.105 74.3145 228.27C74.7832 226.453 77.0977 224.754 81.2578 223.172C82.2539 222.82 83.5137 224.52 85.0371 228.27C97.6934 258.738 111.873 291.316 127.576 326.004C130.096 331.512 134.344 335.174 140.32 336.99C143.016 337.752 144.217 338.836 143.924 340.242ZM96.1992 293.924C92.332 285.135 86.2969 271.512 78.0938 253.055C77.625 252.059 77.0977 251.561 76.5117 251.561C75.9258 251.561 75.4277 252.059 75.0176 253.055L58.2305 293.572C64.5 294.041 71.5312 294.275 79.3242 294.275C84.1289 294.275 89.7539 294.158 96.1992 293.924ZM218.557 302.537C218.557 314.139 214.514 323.865 206.428 331.717C198.694 339.275 189.495 343.055 178.83 343.055C172.795 343.055 166.496 342.059 159.934 340.066C153.606 338.133 150.412 336.375 150.354 334.793C150.295 333.445 150.325 328.729 150.442 320.643C150.618 310.74 150.705 303.533 150.705 299.021C150.705 292.225 150.647 282.381 150.53 269.49C150.412 256.541 150.354 247.957 150.354 243.738C150.354 239.52 149.709 236.619 148.42 235.037C147.248 233.631 144.7 232.518 140.774 231.697C139.25 231.17 138.489 230.203 138.489 228.797C138.489 227.566 139.631 226.541 141.916 225.721C145.198 224.549 149.27 222.586 154.133 219.832C158 217.664 160.403 216.58 161.34 216.58C163.157 216.58 164.065 218.074 164.065 221.062C164.065 221.297 163.977 224.344 163.801 230.203C163.684 235.711 163.655 241.307 163.713 246.99L163.889 277.4C163.889 280.271 164.885 281.092 166.877 279.861C173.909 275.818 181.233 273.797 188.85 273.797C197.639 273.797 204.787 276.463 210.295 281.795C215.803 287.068 218.557 293.982 218.557 302.537ZM204.495 310.359C204.495 302.332 202.268 295.74 197.815 290.584C193.596 285.721 188.469 283.289 182.434 283.289C178.274 283.289 174.172 284.373 170.129 286.541C166.086 288.709 164.065 290.994 164.065 293.396V316.951C164.065 328.26 170.305 333.914 182.786 333.914C189.289 333.914 194.534 331.834 198.518 327.674C202.502 323.455 204.495 317.684 204.495 310.359ZM293.63 306.58C293.63 316.775 289.85 325.418 282.292 332.508C274.733 339.539 265.358 343.055 254.167 343.055C242.975 343.055 234.128 339.949 227.624 333.738C221.354 327.645 218.22 319.588 218.22 309.568C218.22 299.197 222.175 290.467 230.085 283.377C237.761 276.521 246.93 273.094 257.595 273.094C269.02 273.094 277.927 276.17 284.313 282.322C290.524 288.299 293.63 296.385 293.63 306.58ZM278.161 311.941C278.161 302.742 275.934 295.271 271.481 289.529C267.145 283.963 261.637 281.18 254.958 281.18C248.747 281.18 243.679 283.377 239.753 287.771C235.827 292.107 233.864 297.41 233.864 303.68C233.864 313.758 236.149 321.609 240.72 327.234C244.938 332.391 250.446 334.969 257.243 334.969C263.688 334.969 268.786 332.83 272.536 328.553C276.286 324.275 278.161 318.738 278.161 311.941ZM375.909 334.617C375.909 335.789 373.155 337.576 367.648 339.979C362.96 342.029 360.616 343.055 360.616 343.055C359.855 343.055 358.214 341.736 355.695 339.1C353.234 336.463 351.505 335.145 350.509 335.145C349.982 335.145 346.964 336.375 341.456 338.836C335.948 341.297 331.114 342.527 326.954 342.527C318.165 342.527 312.042 340.857 308.585 337.518C304.835 333.943 302.96 327.469 302.96 318.094V300.428C302.96 295.506 302.462 292.049 301.466 290.057C300.118 287.596 297.394 285.721 293.292 284.432C291.945 284.021 291.271 283.289 291.271 282.234C291.271 281.062 292.413 280.037 294.698 279.158C299.034 277.459 303.341 275.73 307.618 273.973C310.607 272.742 312.775 272.127 314.122 272.127C316.173 272.127 317.198 273.504 317.198 276.258C317.198 276.258 317.111 279.363 316.935 285.574C316.759 291.727 316.671 297.586 316.671 303.152V313.699C316.671 320.848 318.077 325.74 320.89 328.377C323.409 330.721 328.009 331.893 334.689 331.893C345.001 331.893 350.157 326.619 350.157 316.072V300.428C350.157 294.744 349.63 291.111 348.575 289.529C347.579 287.889 344.855 286.482 340.402 285.311C339.112 284.783 338.468 283.875 338.468 282.586C338.468 281.238 339.259 280.271 340.841 279.686C352.97 275.291 359.62 273.094 360.792 273.094C363.077 273.094 364.22 274.412 364.22 277.049C364.22 276.99 364.132 279.949 363.956 285.926C363.78 291.844 363.693 297.586 363.693 303.152V325.301C363.693 329.461 366.739 331.775 372.833 332.244C374.884 332.42 375.909 333.211 375.909 334.617ZM423.121 333.738C423.121 336.551 420.543 338.953 415.386 340.945C410.816 342.703 406.187 343.582 401.5 343.582C388.785 343.582 382.427 336.814 382.427 323.279V291.463C382.427 287.42 382.105 284.959 381.461 284.08C380.816 283.143 378.677 282.234 375.045 281.355C374.107 281.121 373.638 280.213 373.638 278.631C373.638 276.932 373.99 275.906 374.693 275.555C381.021 272.449 386.529 266.883 391.216 258.855C391.861 257.742 393.121 257.391 394.996 257.801C396.285 258.211 396.959 258.973 397.017 260.086L397.369 271.072C397.369 271.893 397.515 272.479 397.808 272.83C398.218 273.357 399.156 273.621 400.621 273.621H420.22C421.334 273.621 421.334 274.998 420.22 277.752C418.873 281.092 416.88 282.762 414.244 282.762H400.972C398.687 282.762 397.281 283.143 396.754 283.904C396.343 284.432 396.138 285.867 396.138 288.211V316.951C396.138 324.217 396.783 328.816 398.072 330.75C399.771 333.211 403.726 334.441 409.937 334.441C411.988 334.441 414.478 334.119 417.408 333.475C420.337 332.771 421.89 332.42 422.066 332.42C422.769 332.42 423.121 332.859 423.121 333.738Z" fill="#7B7E8D" fill-opacity="0.1"/>
<path d="M1327.51 709.27C1327.75 710.793 1326.37 711.994 1323.38 712.873C1319.63 713.928 1317.14 714.895 1315.91 715.773C1314.27 717.004 1313.45 718.967 1313.45 721.662V814.387C1313.45 827.688 1309.73 837.971 1302.29 845.236C1295.55 851.799 1286.73 855.08 1275.83 855.08C1268.69 855.08 1263.06 853.82 1258.96 851.301C1257.73 850.539 1257.11 849.484 1257.11 848.137C1257.11 846.789 1257.67 844.943 1258.78 842.6C1260.42 839.143 1262.21 837.414 1264.14 837.414C1265.32 837.414 1267.66 838.557 1271.18 840.842C1275.8 843.83 1279.99 845.324 1283.74 845.324C1289.02 845.324 1292.65 843.684 1294.64 840.402C1296.87 836.77 1297.98 829.826 1297.98 819.572V720.783C1297.98 718.264 1297.25 716.506 1295.79 715.51C1294.73 714.807 1291.98 713.869 1287.52 712.697C1285 711.994 1283.8 710.852 1283.92 709.27C1284.1 707.453 1285.44 706.662 1287.96 706.896C1300.56 708.068 1312.37 707.834 1323.38 706.193C1325.02 705.959 1326.05 706.018 1326.46 706.369C1326.93 706.721 1327.28 707.688 1327.51 709.27ZM1397.66 808.234C1397.66 810.754 1394.27 813.889 1387.47 817.639C1379.73 821.799 1371.8 823.879 1363.65 823.879C1354.8 823.879 1347.36 820.979 1341.33 815.178C1334.88 809.025 1331.66 800.822 1331.66 790.568C1331.66 778.967 1335.26 769.65 1342.47 762.619C1349.21 756.057 1357.47 752.775 1367.25 752.775C1373.06 752.775 1378.47 754.621 1383.51 758.312C1388.03 761.594 1391.01 765.344 1392.48 769.562C1393.01 771.027 1393.8 771.848 1394.85 772.023C1396.38 772.316 1397.14 773.342 1397.14 775.1C1397.14 777.502 1394.27 779.553 1388.52 781.252L1348.01 793.293C1350.64 807.238 1357.79 814.211 1369.45 814.211C1376.19 814.211 1383.87 811.75 1392.48 806.828C1393.77 806.066 1395.03 805.686 1396.26 805.686C1397.2 805.686 1397.66 806.535 1397.66 808.234ZM1376.83 772.99C1376.83 769.768 1375.52 766.955 1372.88 764.553C1370.3 762.092 1367.11 760.861 1363.3 760.861C1352.52 760.861 1347.13 768.625 1347.13 784.152V786.262L1371.03 779.055C1374.9 777.941 1376.83 775.92 1376.83 772.99ZM1521.6 758.4C1521.6 759.455 1519.58 760.539 1515.54 761.652C1512.9 762.355 1510.68 764.758 1508.86 768.859C1498.31 792.297 1488.88 811.193 1480.56 825.549C1480.38 825.9 1479.94 826.047 1479.24 825.988C1478.6 825.93 1478.16 825.725 1477.92 825.373C1476.52 823.264 1472.91 815.91 1467.11 803.312C1461.78 791.711 1458.91 785.91 1458.5 785.91C1457.85 785.91 1454.72 791.506 1449.09 802.697C1442.71 815.178 1438.93 822.297 1437.76 824.055C1437.58 824.465 1437.17 824.641 1436.53 824.582C1435.88 824.582 1435.38 824.348 1435.03 823.879C1430.75 817.199 1420.91 798.918 1405.5 769.035C1403.74 765.52 1401.78 763.293 1399.61 762.355C1395.86 760.715 1393.99 759.514 1393.99 758.752C1393.99 756.467 1395.25 755.441 1397.77 755.676C1409.07 756.848 1418.98 756.613 1427.47 754.973C1429.41 754.621 1430.37 755.266 1430.37 756.906C1430.37 759.191 1429.06 760.656 1426.42 761.301C1422.96 762.121 1421.23 763.41 1421.23 765.168C1421.23 766.281 1421.64 767.922 1422.46 770.09C1424.57 775.539 1427.74 782.453 1431.96 790.832C1436.17 799.211 1438.64 803.4 1439.34 803.4C1439.81 803.4 1442.3 799.035 1446.81 790.305C1451.32 781.574 1453.58 776.74 1453.58 775.803C1453.58 773.518 1452.82 771.057 1451.29 768.42C1449.48 764.553 1447.37 762.238 1444.96 761.477C1441.1 760.129 1439.16 758.811 1439.16 757.521C1439.16 755.178 1440.48 754.211 1443.12 754.621C1452.14 755.852 1461.69 755.617 1471.77 753.918C1473.7 753.566 1474.67 754.152 1474.67 755.676C1474.67 757.902 1473.24 759.279 1470.36 759.807C1466.97 760.451 1465.27 762.18 1465.27 764.992C1465.27 766.34 1465.65 767.922 1466.41 769.738C1475.43 791.828 1480.65 802.873 1482.05 802.873C1482.58 802.873 1484.92 798.566 1489.08 789.953C1493.54 780.754 1496.64 773.342 1498.4 767.717C1498.52 767.424 1498.58 767.102 1498.58 766.75C1498.58 764.23 1496.61 762.268 1492.69 760.861C1489.64 759.865 1488.12 758.752 1488.12 757.521C1488.12 755.471 1489.08 754.68 1491.02 755.148C1493.66 755.734 1498.4 756.174 1505.26 756.467C1511.7 756.701 1515.95 756.672 1518 756.379C1520.4 756.086 1521.6 756.76 1521.6 758.4ZM1585.08 808.234C1585.08 810.754 1581.68 813.889 1574.88 817.639C1567.15 821.799 1559.21 823.879 1551.06 823.879C1542.21 823.879 1534.77 820.979 1528.74 815.178C1522.29 809.025 1519.07 800.822 1519.07 790.568C1519.07 778.967 1522.67 769.65 1529.88 762.619C1536.62 756.057 1544.88 752.775 1554.67 752.775C1560.47 752.775 1565.89 754.621 1570.93 758.312C1575.44 761.594 1578.43 765.344 1579.89 769.562C1580.42 771.027 1581.21 771.848 1582.26 772.023C1583.79 772.316 1584.55 773.342 1584.55 775.1C1584.55 777.502 1581.68 779.553 1575.93 781.252L1535.42 793.293C1538.05 807.238 1545.2 814.211 1556.86 814.211C1563.6 814.211 1571.28 811.75 1579.89 806.828C1581.18 806.066 1582.44 805.686 1583.67 805.686C1584.61 805.686 1585.08 806.535 1585.08 808.234ZM1564.25 772.99C1564.25 769.768 1562.93 766.955 1560.29 764.553C1557.71 762.092 1554.52 760.861 1550.71 760.861C1539.93 760.861 1534.54 768.625 1534.54 784.152V786.262L1558.44 779.055C1562.31 777.941 1564.25 775.92 1564.25 772.99ZM1624.99 820.451C1624.99 822.795 1623.67 823.82 1621.04 823.527C1612.95 822.766 1602.93 822.883 1590.98 823.879C1588.58 824.113 1587.08 824.055 1586.5 823.703C1585.97 823.352 1585.7 822.385 1585.7 820.803C1585.7 819.396 1587.29 818.225 1590.45 817.287C1593.67 816.291 1595.28 813.391 1595.28 808.586V729.045C1595.28 724.299 1594.58 720.812 1593.18 718.586C1591.83 716.359 1589.43 714.631 1585.97 713.4C1584.15 712.756 1583.24 711.848 1583.24 710.676C1583.24 708.918 1584.56 707.6 1587.2 706.721C1591.18 705.432 1595.31 703.439 1599.59 700.744C1603.11 698.635 1605.33 697.58 1606.27 697.58C1608.44 697.58 1609.52 699.074 1609.52 702.062C1609.52 701.828 1609.41 704.758 1609.17 710.852C1609 716.652 1608.94 722.365 1609 727.99L1609.35 806.477C1609.35 810.051 1610.23 812.658 1611.98 814.299C1613.74 815.881 1616.76 816.936 1621.04 817.463C1623.67 817.756 1624.99 818.752 1624.99 820.451ZM1676.16 760.686C1676.16 767.775 1674.11 771.32 1670.01 771.32C1669.36 771.32 1667.22 770.91 1663.59 770.09C1659.96 769.27 1657.29 768.859 1655.59 768.859C1649.03 768.859 1645.75 773.283 1645.75 782.131V808.059C1645.75 811.105 1646.8 813.273 1648.91 814.562C1650.14 815.324 1653.22 816.35 1658.14 817.639C1660.78 818.283 1662.1 819.279 1662.1 820.627C1662.1 822.209 1661.86 823.146 1661.39 823.439C1660.98 823.791 1659.9 823.879 1658.14 823.703C1645.25 822.355 1635.05 822.297 1627.55 823.527C1625.21 823.938 1623.72 823.938 1623.07 823.527C1622.54 823.176 1622.28 822.15 1622.28 820.451C1622.28 818.869 1623.89 817.609 1627.12 816.672C1630.4 815.734 1632.04 812.922 1632.04 808.234V780.021C1632.04 776.33 1631.54 773.84 1630.54 772.551C1629.61 771.262 1626.97 769.533 1622.63 767.365L1622.11 767.102C1620.93 766.516 1620.35 765.695 1620.35 764.641C1620.35 763.469 1621.55 762.473 1623.95 761.652C1627.99 760.246 1631.69 758.254 1635.03 755.676C1637.78 753.508 1639.54 752.424 1640.3 752.424C1642.41 752.424 1643.67 754.24 1644.08 757.873C1644.61 762.502 1645.22 764.816 1645.92 764.816C1645.98 764.816 1649.26 762.619 1655.77 758.225C1660.04 755.354 1664.73 753.918 1669.83 753.918C1674.05 753.918 1676.16 756.174 1676.16 760.686ZM1757.3 757.258C1757.3 758.84 1756.01 760.217 1753.43 761.389C1750.91 762.561 1748.98 764.787 1747.63 768.068C1741.65 782.365 1733.92 798.742 1724.42 817.199C1722.26 821.125 1719.24 826.896 1715.37 834.514C1711.56 842.189 1705.73 852.209 1697.88 864.572C1695.3 868.674 1691.79 870.344 1687.33 869.582C1683.47 868.996 1680.22 867.883 1677.58 866.242C1675 864.66 1673.86 863.137 1674.15 861.672C1674.68 859.211 1676.44 857.834 1679.42 857.541C1684.58 857.072 1687.95 856.604 1689.53 856.135C1691.47 855.49 1693.14 854.289 1694.54 852.531C1697.53 848.664 1701.19 842.893 1705.53 835.217C1709.57 828.068 1711.59 824.055 1711.59 823.176C1711.59 822.59 1707.93 815.529 1700.61 801.994C1690.7 783.713 1684.7 772.609 1682.59 768.684C1680.65 764.934 1678.57 762.766 1676.35 762.18C1672.6 761.184 1670.72 759.924 1670.72 758.4C1670.72 756.174 1671.92 755.148 1674.33 755.324C1686.69 756.262 1698.03 755.91 1708.34 754.27C1710.16 753.977 1711.06 754.562 1711.06 756.027C1711.06 758.078 1709.63 759.455 1706.76 760.158C1702.42 761.213 1700.25 763.117 1700.25 765.871C1700.25 766.398 1700.37 766.955 1700.61 767.541C1703.48 774.279 1707.34 782.395 1712.21 791.887C1716.78 800.852 1719.27 805.334 1719.68 805.334C1720.21 805.334 1722.14 801.672 1725.48 794.348C1729.35 785.793 1732.95 776.799 1736.29 767.365C1736.35 767.131 1736.38 766.867 1736.38 766.574C1736.38 763.762 1734.97 761.799 1732.16 760.686C1728.88 759.455 1727.24 758.4 1727.24 757.521C1727.24 755.529 1728.26 754.68 1730.31 754.973C1738.69 756.262 1746.48 756.379 1753.69 755.324C1755.39 755.09 1756.42 755.09 1756.77 755.324C1757.12 755.559 1757.3 756.203 1757.3 757.258Z" fill="#7B7E8D" fill-opacity="0.1"/>
<path d="M1728 987.694C1710.64 995.397 1668.12 995.732 1636.94 935.447C1621.82 906.644 1593.59 875.006 1548.65 889.738C1531.95 895.211 1508.12 922.886 1513.28 945.829C1516.82 961.57 1516.78 1003.96 1484.23 1026.21C1471 1035.25 1410.26 1061.89 1403.8 1074.44C1394.19 1084.33 1379.42 1098.35 1385.37 1123" stroke="#E8E7E5" stroke-width="3"/>
</svg>
