<?xml version="1.0" standalone="no"?><svg xmlns="http://www.w3.org/2000/svg" viewBox="0 0 1440 320"><path fill="#0099ff" fill-opacity="1" d="M0,224L24,224C48,224,96,224,144,186.7C192,149,240,75,288,37.3C336,0,384,0,432,37.3C480,75,528,149,576,181.3C624,213,672,203,720,186.7C768,171,816,149,864,149.3C912,149,960,171,1008,197.3C1056,224,1104,256,1152,250.7C1200,245,1248,203,1296,181.3C1344,160,1392,160,1416,160L1440,160L1440,320L1416,320C1392,320,1344,320,1296,320C1248,320,1200,320,1152,320C1104,320,1056,320,1008,320C960,320,912,320,864,320C816,320,768,320,720,320C672,320,624,320,576,320C528,320,480,320,432,320C384,320,336,320,288,320C240,320,192,320,144,320C96,320,48,320,24,320L0,320Z"></path></svg>